HIERARCHY
ROOT hip
{
  OFFSET 0 0 0
  CHANNELS 6 Xposition Yposition Zposition Zrotation Yrotation Xrotation
  JOINT abdomen
  {
    OFFSET 0 20.6881 -0.73152
    CHANNELS 3 Zrotation Xrotation Yrotation
    JOINT chest
    {
      OFFSET 0 11.7043 -0.48768
      CHANNELS 3 Zrotation Xrotation Yrotation
      JOINT neck
      {
        OFFSET 0 22.1894 -2.19456
        CHANNELS 3 Zrotation Xrotation Yrotation
        JOINT head
        {
          OFFSET -0.24384 7.07133 1.2192
          CHANNELS 3 Zrotation Xrotation Yrotation
          JOINT leftEye
          {
            OFFSET 4.14528 8.04674 8.04672
            CHANNELS 3 Zrotation Xrotation Yrotation
            End Site
            {
              OFFSET 1 0 0
            }
          }
          JOINT rightEye
          {
            OFFSET -3.6576 8.04674 8.04672
            CHANNELS 3 Zrotation Xrotation Yrotation
            End Site
            {
              OFFSET 1 0 0
            }
          }
        }
      }
      JOINT rCollar
      {
        OFFSET -2.68224 19.2634 -4.8768
        CHANNELS 3 Zrotation Xrotation Yrotation
        JOINT rShldr
        {
          OFFSET -8.77824 -1.95073 1.46304
          CHANNELS 3 Zrotation Xrotation Yrotation
          JOINT rForeArm
          {
            OFFSET -28.1742 -1.7115 0.48768
            CHANNELS 3 Zrotation Xrotation Yrotation
            JOINT rHand
            {
              OFFSET -22.5879 0.773209 7.07136
              CHANNELS 3 Zrotation Xrotation Yrotation
              JOINT rThumb1
              {
                OFFSET -1.2192 -0.487915 3.41376
                CHANNELS 3 Zrotation Xrotation Yrotation
                JOINT rThumb2
                {
                  OFFSET -3.37035 -0.52449 3.41376
                  CHANNELS 3 Zrotation Xrotation Yrotation
                  End Site
                  {
                    OFFSET -1.78271 -1.18214 1.43049
                  }
                }
              }
              JOINT rIndex1
              {
                OFFSET -7.75947 0.938293 5.60832
                CHANNELS 3 Zrotation Xrotation Yrotation
                JOINT rIndex2
                {
                  OFFSET -2.54057 -0.884171 1.56538
                  CHANNELS 3 Zrotation Xrotation Yrotation
                  End Site
                  {
                    OFFSET -1.62519 -0.234802 1.16502
                  }
                }
              }
              JOINT rMid1
              {
                OFFSET -8.24714 1.18213 3.41376
                CHANNELS 3 Zrotation Xrotation Yrotation
                JOINT rMid2
                {
                  OFFSET -3.10165 -0.590103 1.0647
                  CHANNELS 3 Zrotation Xrotation Yrotation
                  End Site
                  {
                    OFFSET -2.48547 -0.328903 0.83742
                  }
                }
              }
              JOINT rRing1
              {
                OFFSET -8.82822 0.546677 1.51678
                CHANNELS 3 Zrotation Xrotation Yrotation
                JOINT rRing2
                {
                  OFFSET -2.60934 -0.819778 -0.0198488
                  CHANNELS 3 Zrotation Xrotation Yrotation
                  End Site
                  {
                    OFFSET -2.33842 -0.294052 0.168128
                  }
                }
              }
              JOINT rPinky1
              {
                OFFSET -8.27202 -0.0477905 -0.4584
                CHANNELS 3 Zrotation Xrotation Yrotation
                JOINT rPinky2
                {
                  OFFSET -1.82734 -0.647385 -0.700984
                  CHANNELS 3 Zrotation Xrotation Yrotation
                  End Site
                  {
                    OFFSET -1.69225 -0.51767 -0.607171
                  }
                }
              }
            }
          }
        }
      }
      JOINT lCollar
      {
        OFFSET 2.68224 19.2634 -4.8768
        CHANNELS 3 Zrotation Xrotation Yrotation
        JOINT lShldr
        {
          OFFSET 8.77824 -1.95073 1.46304
          CHANNELS 3 Zrotation Xrotation Yrotation
          JOINT lForeArm
          {
            OFFSET 28.1742 -1.7115 0.48768
            CHANNELS 3 Zrotation Xrotation Yrotation
            JOINT lHand
            {
              OFFSET 22.5879 0.773209 7.07136
              CHANNELS 3 Zrotation Xrotation Yrotation
              JOINT lThumb1
              {
                OFFSET 1.2192 -0.487915 3.41376
                CHANNELS 3 Zrotation Xrotation Yrotation
                JOINT lThumb2
                {
                  OFFSET 3.37035 -0.52449 3.41376
                  CHANNELS 3 Zrotation Xrotation Yrotation
                  End Site
                  {
                    OFFSET 1.78271 -1.18214 1.43049
                  }
                }
              }
              JOINT lIndex1
              {
                OFFSET 7.75947 0.938293 5.60832
                CHANNELS 3 Zrotation Xrotation Yrotation
                JOINT lIndex2
                {
                  OFFSET 2.54057 -0.884171 1.56538
                  CHANNELS 3 Zrotation Xrotation Yrotation
                  End Site
                  {
                    OFFSET 1.62519 -0.234802 1.16502
                  }
                }
              }
              JOINT lMid1
              {
                OFFSET 8.24714 1.18213 3.41376
                CHANNELS 3 Zrotation Xrotation Yrotation
                JOINT lMid2
                {
                  OFFSET 3.10165 -0.590103 1.0647
                  CHANNELS 3 Zrotation Xrotation Yrotation
                  End Site
                  {
                    OFFSET 2.48547 -0.328903 0.83742
                  }
                }
              }
              JOINT lRing1
              {
                OFFSET 8.82822 0.546677 1.51678
                CHANNELS 3 Zrotation Xrotation Yrotation
                JOINT lRing2
                {
                  OFFSET 2.60934 -0.819778 -0.0198488
                  CHANNELS 3 Zrotation Xrotation Yrotation
                  End Site
                  {
                    OFFSET 2.33842 -0.294052 0.168128
                  }
                }
              }
              JOINT lPinky1
              {
                OFFSET 8.27202 -0.0477905 -0.4584
                CHANNELS 3 Zrotation Xrotation Yrotation
                JOINT lPinky2
                {
                  OFFSET 1.82734 -0.647385 -0.700984
                  CHANNELS 3 Zrotation Xrotation Yrotation
                  End Site
                  {
                    OFFSET 1.69225 -0.51767 -0.607171
                  }
                }
              }
            }
          }
        }
      }
    }
  }
  JOINT rButtock
  {
    OFFSET -8.77824 4.35084 1.2192
    CHANNELS 3 Zrotation Xrotation Yrotation
    JOINT rThigh
    {
      OFFSET 0 -1.70687 -2.19456
      CHANNELS 3 Zrotation Xrotation Yrotation
      JOINT rShin
      {
        OFFSET 0 -36.8199 0.73152
        CHANNELS 3 Zrotation Xrotation Yrotation
        JOINT rFoot
        {
          OFFSET 0.73152 -45.1104 -5.12064
          CHANNELS 3 Zrotation Xrotation Yrotation
          End Site
          {
            OFFSET -1.1221 -3.69964 12.103
          }
        }
      }
    }
  }
  JOINT lButtock
  {
    OFFSET 8.77824 4.35084 1.2192
    CHANNELS 3 Zrotation Xrotation Yrotation
    JOINT lThigh
    {
      OFFSET 0 -1.70687 -2.19456
      CHANNELS 3 Zrotation Xrotation Yrotation
      JOINT lShin
      {
        OFFSET 0 -36.8199 0.73152
        CHANNELS 3 Zrotation Xrotation Yrotation
        JOINT lFoot
        {
          OFFSET -0.73152 -45.1104 -5.12064
          CHANNELS 3 Zrotation Xrotation Yrotation
          End Site
          {
            OFFSET 1.1221 -3.69964 12.103
          }
        }
      }
    }
  }
}
MOTION
Frames:	4
Frame Time:	0.03333
-20.512189250439405 62.66889572143555 -7.186784036457539 -6.407251050000868 6.198642558596692 2.626003043638214 -2.4466595649500156 14.956925829412343 4.101377905544093 2.165100597785284 -9.93741127063351 1.153711585255772 -4.730384540362554 15.63583297253327 -3.5469159553271523 8.8271725587844 -25.442944724370445 -4.728343594461189 -0.02824165827923913 0.061401733111761794 0.09395167995233192 0.2957622388220673 -0.12331947901119013 0.3989604207654362 -0.10910063932502352 0.03360490424243297 0.043488241332294314 49.05573684554139 31.580376835172775 17.01185825064967 -24.465218512608754 -30.24846262626361 68.02409424620475 -4.374593583194243 -10.926004313364693 -5.277468605615412 -0.0724854892884661 -0.1584711409561533 0.23097864159643683 0.27810545276564386 -0.19638015827317856 -0.01993219954538971 -0.24733342284232657 0.28684788145984863 0.15212640214531392 8.064870513444909 5.582978271435028 0.4957819807883635 -0.007486874506112453 0.037316044839277085 -0.04262064722514402 2.561864365680621 0.7278506245267992 -0.043062008179616425 -0.0377376489379667 -0.11488693012993502 0.005076164574641742 10.375030028492688 0.7287756349116599 0.09029514084820824 -0.30142275809671537 -0.023163852858370998 0.2426364938491792 2.1757559063339156 -0.7440474576481324 -0.5610656759272858 0.4060693670309501 -0.14135217893601548 0.21358940685640748 -58.93749744236493 32.749896466375716 -26.66222569877152 23.77496301018185 -28.943554985332675 -65.03455459743601 5.005953218181773 -14.799358487902026 4.286703135841342 -0.08999478594749957 0.20790155348486616 0.13269451395662765 0.11214935829408218 0.059893982192694706 -0.30032907405586706 0.06964782583280348 -0.27368397249511844 0.045645513892960524 -7.9604292370725975 5.605676697594273 -0.5581142871538999 -0.10640100705557598 -0.027742280737461284 -0.08482337225044788 -2.9262532503535086 0.8755378305984279 -0.23130950556478577 -0.038062616532071214 -0.11932329807841698 0.09087161148219995 -10.911867529330058 0.6160879723336161 0.15391996713267694 0.08476574252932591 -0.19999378191136488 -0.0752356809660276 -2.304769642018994 -0.8963522984855129 0.27651908797005553 -0.0007647677436298652 -0.15544752826837974 0.05618812432028677 -33.9917478008891 -37.10033764689115 -29.151155170060626 -5.62722679819931 63.868450060818084 6.324983128995356 -4.718958914541592 -10.529219841458435 -10.121494260275462 0.16779389560597113 0.12690803638873102 0.14194189640173732 39.19125662731798 -34.2906505393472 32.181184180229195 5.28701721007509 64.26074880598694 -6.854876461880939 5.21511495490872 -10.60039212015726 14.174836726047324
-20.653413701802492 62.61434555053711 -7.365249469876289 -6.356677768065155 6.06081958642959 2.585819119760325 -2.485932298903943 14.94448805493375 4.044882422711156 2.288297787061862 -9.94084344069144 1.165867294265985 -4.7570935682250655 15.626096537871417 -3.456787767247426 8.758826270854666 -25.39599571156307 -4.697813502644879 -0.006016649606840763 0.02398408920858077 0.07872382655864138 0.22476871898042586 -0.10624582035515653 0.3097521737895459 -0.07545277959601351 0.0175004921183065 0.038690887214006604 49.04351080692707 31.48190258281412 16.92466576325258 -24.408756753834844 -30.213703793577416 67.93113537160087 -4.484925470838867 -11.10837548684591 -5.287147837442967 -0.07635479145327832 -0.12746547053845397 0.16921921734753528 0.2224287388594618 -0.15911085754103377 -0.010161827381098033 -0.21310478359045393 0.24776724657632818 0.10606690808552054 7.986178196469899 5.584862549872305 0.5049546046785733 0.014192092558655127 0.015386868735304897 -0.024552555714638883 2.6535515444384026 0.7860899933930583 -0.01914268570623177 -0.031522710401784004 -0.09505536915309722 0.014874817990965504 10.381814113885804 0.731723074981932 0.09811058480599533 -0.21590745566683345 -0.0319318947619633 0.1774653901098563 2.1805788736615908 -0.7467086701034986 -0.45173846642088833 0.3025193236236198 -0.09722507479248697 0.17247305543510588 -58.82897939683176 32.60861741848859 -26.77139773491771 23.739118177417623 -28.840135676014924 -64.90858541857348 5.020090002216407 -14.734610002117597 4.299517424497933 -0.058063438134278396 0.15417720646424993 0.08577548994857709 0.06070666798222044 0.026222833786451204 -0.22054446042218454 0.068797413920284 -0.19569409778756253 0.04263991049303757 -7.913085780840654 5.602465228023898 -0.4995105703841029 -0.09863636262974086 -0.007914828546296064 -0.09625716228190212 -2.9192053489037018 0.8791559098678307 -0.1969544010915621 -0.022887963908712727 -0.09135153899309914 0.07030911354246501 -10.812643663709991 0.6364107733221659 0.10101070713996654 0.07103743582357051 -0.1658087117958775 -0.05908975409835215 -2.314352824311345 -0.8686996906613345 0.25583983648419567 -0.004422120600760131 -0.12356345817081973 0.045214731727573704 -33.78904144670146 -37.08936153289494 -29.07015937178803 -5.598898161729859 63.7826902055994 6.3919902729609435 -4.682750374204062 -10.469559846605666 -10.160667102712777 0.13498417479331576 0.11672566507927006 0.1179948262848495 38.98441800868249 -34.23919872432949 31.991847921341854 5.340317445036931 64.11331917275221 -6.817502947403098 5.202165343129199 -10.519188001114978 14.208202200142837
-20.836198423057795 62.535011768341064 -7.566790468990803 -6.356763145429779 6.098024480612295 2.5909144408811544 -2.488267156383029 14.934058356071139 4.073431759668163 2.271670118414289 -9.931333256045844 1.155131517551194 -4.796160115843423 15.592036092027856 -3.4458897735398475 8.739076778869574 -25.352267132949358 -4.690917999790928 -0.021058326984795563 0.041528737432654346 0.06064885149811334 0.2155273529714796 -0.12198961983544748 0.3107407369501995 -0.09202794116434196 0.04757370831216686 0.04898963854362224 48.9779956324083 31.402436746915605 16.890507987213347 -24.428513076009104 -30.195655018695657 67.87072917858129 -4.436896861255807 -11.052519053587192 -5.302610531950229 -0.03236719925963261 -0.17114335634192193 0.17727115660533407 0.22647103690934575 -0.19985960604677117 -0.04417680977799622 -0.17529328323208646 0.251156727951947 0.13645954901489138 7.990636602450625 5.55964293013568 0.4415449426931732 -0.01850943912476432 0.04867907837979822 0.008375466108875245 2.61907979314076 0.8257928691821375 -0.015620976137149729 -0.022126397816256308 -0.08904224136254725 0.03151219831376453 10.336463365344212 0.6831854028622941 0.08674088115886285 -0.246454249430099 0.009590852914954057 0.16315048754827316 2.206400403818824 -0.7648673683422123 -0.47958792243138065 0.2747707196250909 -0.1335850799109474 0.14135855555793592 -58.81725196202685 32.590466190769284 -26.7311747508955 23.69910692925969 -28.809813051194652 -64.82505220502422 4.99895099362204 -14.72252398238126 4.2979486154229445 -0.028158948957258505 0.1790163633197649 0.08369414988157436 0.10959105224351573 0.03848350359430011 -0.2176232205306818 0.012236750805540637 -0.21782332372902202 0.04460764530423593 -7.903357030141617 5.585647167853211 -0.5221506731311382 -0.05997439699800103 -0.006715756820988592 -0.03989951053198152 -2.904533248792868 0.903892293720678 -0.19515347230650015 0.007883212240958311 -0.05745202948185647 0.07906488244989245 -10.785444142887707 0.6647927706445076 0.08297324475902068 0.09012055747776301 -0.1192023290249137 -0.08067731402211792 -2.310505720261335 -0.8460970472330285 0.2793796565718215 -0.023676423871026076 -0.1691523028380103 0.03600582245739823 -33.71376593185875 -37.0204483392641 -29.04828910606565 -5.566686562717256 63.75398292051784 6.398282157846995 -4.7074662674894 -10.462181534754759 -10.139316785140963 0.10147046424847303 0.10057296805338409 0.1262526317131007 38.98574989557064 -34.16029979413209 31.966712825196208 5.294770328556701 64.06268015024574 -6.822598268523928 5.200900477472277 -10.539530012010568 14.201170520392308
-21.105956938117743 62.483084201812744 -7.883429899811745 -6.392822275379216 6.240813854079644 2.6313111678403716 -2.4656406606534813 14.92963922367814 4.138163169979666 2.157283232836793 -9.91224287731566 1.126227757809287 -4.817004572529832 15.56148465587039 -3.5079339312997737 8.768552460232765 -25.336692594094433 -4.707818449118478 -0.05902211921731315 0.09081850409336047 0.05419667060997848 0.2630585993849587 -0.14755010870033927 0.3788652571753182 -0.13448012817690996 0.08386506469338337 0.05995123838784645 48.90972789165403 31.383360028563757 16.917034734402385 -24.49296615611193 -30.194726112968535 67.87056525404121 -4.3059851867551115 -10.857181619740352 -5.311381775504995 0.019553977820100255 -0.23834249265620971 0.23754501470975783 0.26718291306573566 -0.26739235441333176 -0.08083443505345465 -0.15559704537817953 0.27333798072497495 0.20638051571342927 8.056988475142713 5.524184003059559 0.37126368351591715 -0.07737947991133891 0.10313660351913301 0.02277387840523236 2.517619894341159 0.8312214821901225 -0.02849705666138736 -0.01466100105343237 -0.09835733872997526 0.04026071014519883 10.282861748285244 0.6317806521168378 0.06309519313910184 -0.34378583248495587 0.06207274583686266 0.2021697574509693 2.2271829619158803 -0.7822529745442449 -0.5912738950789598 0.32573876515048966 -0.20353115289077037 0.1379778253621912 -58.87496023032429 32.67465168738428 -26.59891667535467 23.676683418214537 -28.855090375202668 -64.8162412609949 4.967876621106244 -14.756835437676818 4.284093576691574 -0.021264513320365323 0.24718796115734645 0.11968743253854329 0.2002579448136004 0.07828956259760345 -0.27027058545740457 -0.04749117241295813 -0.2978315193363167 0.0489496179039542 -7.926805923335917 5.569491209145192 -0.5950994947052545 -0.01875698012132439 -0.021921758945420377 0.03587930387519433 -2.892869420124602 0.9324960587476336 -0.22109730553855889 0.03178236431195027 -0.041518692252097665 0.10675575000559352 -10.821434117171798 0.685442993826395 0.1078166704827669 0.11940147172790189 -0.09826091566880173 -0.11266602475219661 -2.2908620962083788 -0.8405433563858676 0.3142159692164137 -0.04390562992360556 -0.23797435613211662 0.0322522066216531 -33.76708921870904 -36.948908937897386 -29.077781862901762 -5.552473792828105 63.778271073206405 6.3491692557331945 -4.756361884210228 -10.497145273116054 -10.084029818904295 0.08488006815664428 0.08832014229091012 0.1502676835565713 39.13514662328633 -34.103452129670075 32.07332866304552 5.20017306232567 64.10856536108989 -6.850570881382892 5.20011842081231 -10.62082975370123 14.168322433126425
